<svg width="48" height="48" viewBox="0 0 48 48" fill="none" xmlns="http://www.w3.org/2000/svg">
<path d="M24 26C28.4183 26 32 22.4183 32 18C32 13.5817 28.4183 10 24 10C19.5817 10 16 13.5817 16 18C16 22.4183 19.5817 26 24 26Z" stroke="#00CC99" stroke-width="2.5"/>
<path opacity="0.3" d="M24 23C26.7614 23 29 20.7614 29 18C29 15.2386 26.7614 13 24 13C21.2386 13 19 15.2386 19 18C19 20.7614 21.2386 23 24 23Z" fill="#00CC99"/>
<path d="M10 38C10 31.3333 14.6667 28 24 28C33.3333 28 38 31.3333 38 38" stroke="#00CC99" stroke-width="2.5" stroke-linecap="round"/>
</svg>
